<?xml version="1.0" encoding="UTF-8"?>
<svg id="Calque_1" xmlns="http://www.w3.org/2000/svg" version="1.1" viewBox="0 0 72 72">
  <!-- Generator: Adobe Illustrator 29.6.1, SVG Export Plug-In . SVG Version: 2.1.1 Build 9)  -->
  <defs>
    <style>
      .st0 {
        fill: #fff;
      }
    </style>
  </defs>
  <polygon class="st0" points="5.97 11.06 5.53 10.45 2.78 12.45 3.22 13.06 5.97 11.06"/>
  <polygon class="st0" points="1.77 68.46 2.23 69.05 4.48 67.3 4.02 66.71 1.77 68.46"/>
  <polygon class="st0" points="69.91 7.39 70.08 8.12 72 7.68 72 6.91 69.91 7.39"/>
  <polygon class="st0" points="69.28 20.2 69.71 20.81 72 19.21 72 18.76 71.78 18.45 69.28 20.2"/>
  <rect class="st0" x="71.75" y="23.63" width=".25" height=".75"/>
  <polygon class="st0" points="68.95 29.44 68.55 30.07 71.3 31.82 71.7 31.19 68.95 29.44"/>
  <polygon class="st0" points="71.97 41.55 72 41.53 72 40.59 71.52 40.95 71.97 41.55"/>
  <polygon class="st0" points="68.26 49.79 71.01 52.04 71.48 51.46 68.73 49.21 68.26 49.79"/>
  <polygon class="st0" points="68.93 62.37 72 62.91 72 62.15 69.06 61.63 68.93 62.37"/>
  <polygon class="st0" points="61.02 62.46 61.48 63.05 63.73 61.3 63.27 60.71 61.02 62.46"/>
  <rect class="st0" x="68.75" y="44.63" width="3" height=".75"/>
  <polygon class="st0" points="55.79 14.89 57.69 17.71 58.31 17.29 56.42 14.47 55.79 14.89"/>
  <polygon class="st0" points="28.31 15.8 26.66 13.24 26.03 13.64 27.68 16.21 28.31 15.8"/>
  <polygon class="st0" points="43.35 11.77 45.2 9.09 44.58 8.66 42.73 11.35 43.35 11.77"/>
  <polygon class="st0" points="67.88 72 68.68 72 69.43 70.02 68.72 69.76 67.88 72"/>
  <polygon class="st0" points="62.13 69.78 62.56 72 63.32 72 62.87 69.64 62.13 69.78"/>
  <polygon class="st0" points="57.31 47.79 55.42 44.97 54.79 45.39 56.69 48.21 57.31 47.79"/>
  <polygon class="st0" points="48.97 19.36 47.31 16.8 46.68 17.21 48.34 19.77 48.97 19.36"/>
  <polygon class="st0" points="47.61 72 48.35 72 48.4 70.86 47.65 70.83 47.61 72"/>
  <polygon class="st0" points="40.23 70.1 40.85 70.52 42.7 67.84 42.08 67.41 40.23 70.1"/>
  <polygon class="st0" points="30.48 70.4 31.58 72 32.5 72 31.09 69.98 30.48 70.4"/>
  <polygon class="st0" points="50.03 40.54 50.6 41.04 52.95 38.38 52.38 37.88 50.03 40.54"/>
  <polygon class="st0" points="15.75 72 16.65 72 17.58 70.64 16.96 70.22 15.75 72"/>
  <polygon class="st0" points="8.88 70.79 9.61 70.95 10.52 66.73 9.79 66.58 8.88 70.79"/>
  <polygon class="st0" points="2.92 71.61 3.2 72 4.11 72 3.52 71.18 2.92 71.61"/>
  <rect class="st0" x="25.59" y="68.18" width="3" height=".75" transform="translate(-42.49 92.88) rotate(-87.71)"/>
  <polygon class="st0" points="10.9 6.41 7.4 4.91 7.1 5.6 10.6 7.1 10.9 6.41"/>
  <polygon class="st0" points="4.37 17.47 4.12 20.72 4.87 20.78 5.12 17.53 4.37 17.47"/>
  <rect class="st0" x="8.37" y="43.61" width=".75" height="4.04" transform="translate(-16.32 6.51) rotate(-21.8)"/>
  <polygon class="st0" points="7.18 34.31 4.93 38.06 5.57 38.45 7.82 34.7 7.18 34.31"/>
  <polygon class="st0" points="29.53 4.75 28.97 4.25 26.72 6.75 27.28 7.25 29.53 4.75"/>
  <polygon class="st0" points="36.99 6.97 33.74 4.22 33.26 4.79 36.51 7.54 36.99 6.97"/>
  <polygon class="st0" points="53.69 6.18 50.44 4.18 50.05 4.82 53.3 6.82 53.69 6.18"/>
  <polygon class="st0" points="52.82 10.7 52.18 10.31 50.18 13.56 50.82 13.95 52.82 10.7"/>
  <polygon class="st0" points="59.64 9.6 59.64 9.6 64.64 7.36 64.33 6.67 64.33 6.67 64.33 6.66 59.33 8.91 59.64 9.6 59.64 9.6"/>
  <polygon class="st0" points="64.71 14.81 67.21 13.06 66.78 12.45 64.28 14.2 64.71 14.81"/>
  <rect class="st0" x="18.37" y="4.75" width=".75" height="3"/>
  <polygon class="st0" points="15.8 10.12 15.69 9.38 12.44 9.88 12.55 10.62 15.8 10.12"/>
  <polygon class="st0" points="20.87 17.45 20.37 14.2 19.63 14.31 20.13 17.56 20.87 17.45"/>
  <polygon class="st0" points="24.58 9.37 24.42 8.64 20.92 9.39 21.08 10.12 24.58 9.37"/>
  <polygon class="st0" points="11.78 19.2 9.03 21.2 9.47 21.81 12.22 19.81 11.78 19.2"/>
  <polygon class="st0" points="7.12 63.98 7.87 64.03 8.12 60.03 7.37 59.98 7.12 63.98"/>
  <polygon class="st0" points="9.78 53.5 9.22 53 6.97 55.5 7.53 56 9.78 53.5"/>
  <polygon class="st0" points="18.44 62.47 20.94 65.97 21.55 65.54 19.05 62.04 18.44 62.47"/>
  <polygon class="st0" points="27.03 29.95 27.46 30.56 29.96 28.81 29.53 28.2 27.03 29.95"/>
  <rect class="st0" x="56" y="31.43" width=".75" height="3.13" transform="translate(.41 66.69) rotate(-61.39)"/>
  <polygon class="st0" points="26.82 39.64 23.07 38.89 22.92 39.62 26.67 40.37 26.82 39.64"/>
  <rect class="st0" x="29.25" y="49.88" width="2.5" height=".75" transform="translate(-24.05 28.35) rotate(-36.87)"/>
  <polygon class="st0" points="26.01 59.54 28.76 61.79 29.23 61.21 26.48 58.96 26.01 59.54"/>
  <polygon class="st0" points="32.45 65.44 30.45 64.19 30.05 64.82 32.05 66.07 32.45 65.44"/>
  <rect class="st0" x="26.5" y="54.38" width="3" height=".75"/>
  <polygon class="st0" points="39.96 19.31 39.53 18.7 37.03 20.45 37.46 21.06 39.96 19.31"/>
  <rect class="st0" x="39.5" y="23.88" width="3" height=".75"/>
  <polygon class="st0" points="39.45 31.44 36.7 29.69 36.3 30.32 39.05 32.07 39.45 31.44"/>
  <polygon class="st0" points="38.11 45.11 38.86 42.61 38.14 42.4 37.39 44.9 38.11 45.11"/>
  <polygon class="st0" points="39.23 51.71 36.48 49.46 36.01 50.04 38.76 52.29 39.23 51.71"/>
  <polygon class="st0" points="37.3 59.07 39.3 60.32 39.7 59.69 37.7 58.44 37.3 59.07"/>
  <rect class="st0" x="59.97" y="44.15" width="3" height=".75"/>
  <polygon class="st0" points="22.03 43.31 24.53 45.06 24.96 44.45 22.46 42.7 22.03 43.31"/>
  <rect class="st0" x="27" y="20.13" width="3" height=".75"/>
  <polygon class="st0" points="14.53 35.06 17.03 36.81 17.46 36.2 14.96 34.45 14.53 35.06"/>
  <rect class="st0" x="12" y="39.63" width="3" height=".75"/>
  <polygon class="st0" points="15.45 47.82 18.2 46.07 17.8 45.44 15.05 47.19 15.45 47.82"/>
  <polygon class="st0" points="47.04 32.69 47.45 33.32 49.84 31.76 49.43 31.13 47.04 32.69"/>
  <polygon class="st0" points="47.36 25.77 49.74 27.59 50.2 27 47.81 25.18 47.36 25.77"/>
  <polygon class="st0" points="55.09 21.52 54.35 21.46 54.12 24.48 54.87 24.53 55.09 21.52"/>
  <polygon class="st0" points="45.32 65.94 48.37 66.07 48.4 65.32 45.35 65.19 45.32 65.94"/>
  <polygon class="st0" points="46.11 60.02 48.49 61.84 48.95 61.25 46.56 59.43 46.11 60.02"/>
  <polygon class="st0" points="54.95 58.67 53.82 55.61 53.12 55.87 54.24 58.93 54.95 58.67"/>
  <polygon class="st0" points="48.46 43.81 48.03 43.2 45.53 44.95 45.96 45.56 48.46 43.81"/>
  <polygon class="st0" points="48.11 50.64 44.86 49.64 44.64 50.36 47.89 51.36 48.11 50.64"/>
  <polygon class="st0" points="57.2 66.19 54.45 64.44 54.05 65.07 56.8 66.82 57.2 66.19"/>
  <polygon class="st0" points="61.55 39.57 64.3 41.32 64.7 40.69 61.95 38.94 61.55 39.57"/>
  <rect class="st0" x="60" y="52.38" width="2.5" height=".75" transform="translate(-19.4 47.3) rotate(-36.87)"/>
  <polygon class="st0" points="22.65 29.32 19.6 29.19 19.57 29.94 22.62 30.07 22.65 29.32"/>
  <polygon class="st0" points="20.81 23.43 20.36 24.02 22.74 25.84 23.2 25.25 20.81 23.43"/>
  <polygon class="st0" points="57.67 28.87 60.4 29.41 60.54 28.68 57.82 28.14 57.67 28.87"/>
  <polygon class="st0" points="15.37 55.7 14.63 55.81 15.13 59.06 15.87 58.95 15.37 55.7"/>
  <polygon class="st0" points="16.92 53.39 17.08 54.12 20.58 53.37 20.42 52.64 16.92 53.39"/>
  <polygon class="st0" points="36.82 13.13 32.82 12.38 32.68 13.12 36.68 13.87 36.82 13.13"/>
  <polygon class="st0" points="33.1 33.57 33.6 37.07 34.34 36.97 33.84 33.47 33.1 33.57"/>
  <polygon class="st0" points="61.83 22.09 64.33 23.34 64.67 22.67 62.17 21.42 61.83 22.09"/>
  <polygon class="st0" points="13.49 15.97 10.24 13.22 9.76 13.79 13.01 16.54 13.49 15.97"/>
  <polygon class="st0" points="2.03 30.95 2.46 31.56 4.96 29.81 4.53 29.2 2.03 30.95"/>
  <rect class="st0" x="13.5" y="24.38" width="2.5" height=".75" transform="translate(-11.9 13.8) rotate(-36.87)"/>
  <polygon class="st0" points="43.45 2.34 42.83 1.91 40.98 4.6 41.6 5.02 43.45 2.34"/>
  <polygon class="st0" points="66.08 32.16 64.23 34.85 64.85 35.27 66.7 32.59 66.08 32.16"/>
  <polygon class="st0" points="33.42 26.22 34.15 26.4 34.86 23.6 34.13 23.41 33.42 26.22"/>
  <polygon class="st0" points="21.36 56.1 20.63 55.91 19.92 58.72 20.65 58.9 21.36 56.1"/>
  <rect class="st0" x="29.5" y="43.13" width="2.5" height=".75" transform="translate(-19.95 27.15) rotate(-36.87)"/>
  <polygon class="st0" points="1.42 51.62 5.17 52.37 5.32 51.64 1.57 50.89 1.42 51.62"/>
  <polygon class="st0" points="68.68 57.14 66.78 54.31 66.16 54.73 68.05 57.55 68.68 57.14"/>
  <polygon class="st0" points="23.61 35.93 24.33 36.11 25.02 33.32 24.29 33.14 23.61 35.93"/>
  <rect class="st0" x="42.5" y="37.38" width="2.5" height=".75" transform="translate(-13.9 33.8) rotate(-36.87)"/>
  <polygon class="st0" points="56.37 72 57.27 72 57.78 71.23 57.16 70.81 56.37 72"/>
  <polygon class="st0" points="1.16 6.64 0 6.91 0 7.68 1.33 7.37 1.16 6.64"/>
  <polygon class="st0" points="0 18.76 0 19.21 .21 19.06 0 18.76"/>
  <rect class="st0" y="23.63" width="2.75" height=".75"/>
  <polygon class="st0" points="1.52 39.45 0 40.59 0 41.53 1.97 40.05 1.52 39.45"/>
  <polygon class="st0" points="0 62.91 1.18 63.12 1.31 62.38 0 62.15 0 62.91"/>
  <polygon class="st0" points="68.68 0 67.88 0 67.61 .72 68.31 .98 68.68 0"/>
  <polygon class="st0" points="63.49 .92 63.32 0 62.56 0 62.76 1.06 63.49 .92"/>
  <polygon class="st0" points="48.35 0 47.61 0 47.54 1.83 48.28 1.86 48.35 0"/>
  <polygon class="st0" points="31.58 0 31.9 .46 32.52 .03 32.5 0 31.58 0"/>
  <polygon class="st0" points="16.65 0 15.75 0 15.63 .17 16.25 .59 16.65 0"/>
  <polygon class="st0" points="5.19 1.49 4.11 0 3.2 0 4.58 1.93 5.19 1.49"/>
  <polygon class="st0" points="57.27 0 56.37 0 55.16 1.81 55.78 2.23 57.27 0"/>
</svg>