<?xml version="1.0" encoding="UTF-8"?>
<svg id="Calque_1" xmlns="http://www.w3.org/2000/svg" version="1.1" viewBox="0 0 279.4 85">
  <!-- Generator: Adobe Illustrator 29.6.1, SVG Export Plug-In . SVG Version: 2.1.1 Build 9)  -->
  <defs>
    <style>
      .st0 {
        fill: #87a385;
      }
    </style>
  </defs>
  <polygon class="st0" points="26.4 62.56 39.52 62.56 50.16 31.41 50.16 62.56 65.84 62.56 65.84 6.16 46.96 6.16 33.11 42.79 18.96 6.16 0 6.16 0 62.56 15.68 62.56 15.68 31.17 26.4 62.56"/>
  <path class="st0" d="M83.65,60.4c3.52,1.81,7.52,2.72,12,2.72s8.48-.91,12-2.72c3.57-1.87,6.4-4.53,8.48-8s3.12-7.57,3.12-12.32-1.04-8.83-3.12-12.24c-2.03-3.47-4.83-6.11-8.4-7.92-3.52-1.87-7.52-2.8-12-2.8s-8.51.93-12.08,2.8c-3.52,1.81-6.32,4.45-8.4,7.92-2.03,3.41-3.04,7.49-3.04,12.24s1.01,8.85,3.04,12.32c2.08,3.47,4.88,6.13,8.4,8ZM89.25,34.8c.69-1.39,1.6-2.4,2.72-3.04,1.17-.69,2.43-1.04,3.76-1.04s2.56.35,3.68,1.04c1.17.64,2.11,1.65,2.8,3.04.75,1.39,1.12,3.15,1.12,5.28s-.37,3.92-1.12,5.36c-.69,1.39-1.63,2.43-2.8,3.12-1.17.64-2.43.96-3.76.96s-2.59-.32-3.76-.96c-1.12-.69-2.03-1.73-2.72-3.12-.64-1.44-.96-3.23-.96-5.36s.35-3.89,1.04-5.28Z"/>
  <path class="st0" d="M104.13,12.8c1.87,0,3.39-.59,4.56-1.76,1.23-1.23,1.84-2.75,1.84-4.56s-.61-3.41-1.84-4.64C107.52.61,106,0,104.13,0s-3.33.61-4.56,1.84c-1.17,1.23-1.76,2.77-1.76,4.64s.59,3.33,1.76,4.56c1.23,1.17,2.75,1.76,4.56,1.76Z"/>
  <path class="st0" d="M87.09,12.8c1.87,0,3.41-.59,4.64-1.76,1.23-1.23,1.84-2.75,1.84-4.56s-.61-3.41-1.84-4.64S88.96,0,87.09,0s-3.33.61-4.56,1.84c-1.17,1.23-1.76,2.77-1.76,4.64s.59,3.33,1.76,4.56c1.23,1.17,2.75,1.76,4.56,1.76Z"/>
  <path class="st0" d="M146.82,49.36c-.59.21-1.23.32-1.92.32-.96,0-1.81-.27-2.56-.8-.69-.53-1.04-1.39-1.04-2.56V3.36h-15.68v43.52c0,4.05.75,7.28,2.24,9.68,1.55,2.35,3.49,4.03,5.84,5.04,2.4,1.01,4.85,1.52,7.36,1.52,2.93,0,5.63-.51,8.08-1.52l-2.32-12.24Z"/>
  <path class="st0" d="M169.27,63.12c2.93,0,5.63-.51,8.08-1.52l-2.32-12.24c-.59.21-1.23.32-1.92.32-.96,0-1.81-.27-2.56-.8-.69-.53-1.04-1.39-1.04-2.56V3.36h-15.68v43.52c0,4.05.75,7.28,2.24,9.68,1.55,2.35,3.49,4.03,5.84,5.04,2.4,1.01,4.85,1.52,7.36,1.52h0Z"/>
  <path class="st0" d="M222.89,48.4c-1.76-2.03-3.68-3.76-5.76-5.2-2.08-1.44-4.24-2.43-6.48-2.96,2.83-1.17,5.52-2.91,8.08-5.2,2.56-2.35,4.8-5.01,6.72-8,1.97-3.04,3.39-6.16,4.24-9.36h-16.72c-.48,2.51-1.44,4.96-2.88,7.36-1.39,2.35-3.09,4.37-5.12,6.08s-4.19,2.85-6.48,3.44V3.36h-15.68v59.2h15.68v-16c1.76.27,3.41.85,4.96,1.76,1.6.85,3.01,1.97,4.24,3.36,1.28,1.39,2.37,3.01,3.28,4.88.96,1.81,1.68,3.81,2.16,6h16.88c-.53-2.56-1.41-5.04-2.64-7.44-1.23-2.45-2.72-4.69-4.48-6.72h0Z"/>
  <path class="st0" d="M263.8,17.68v22.32c0,1.76-.29,3.33-.88,4.72-.53,1.33-1.36,2.4-2.48,3.2-1.07.75-2.4,1.12-4,1.12-2.24,0-4.03-.72-5.36-2.16s-2-3.47-2-6.08v-23.12h-15.44v24.88c0,3.89.72,7.33,2.16,10.32,1.49,2.93,3.55,5.23,6.16,6.88,2.67,1.65,5.73,2.48,9.2,2.48,1.81,0,3.55-.32,5.2-.96,1.71-.64,3.23-1.73,4.56-3.28,1.17-1.36,2.12-3.19,2.88-5.45v7.45c0,3.2-.75,5.81-2.24,7.84s-3.84,3.04-7.04,3.04c-2.29,0-4.21-.59-5.76-1.76-1.49-1.17-2.61-2.56-3.36-4.16l-13.44,4.48c1.01,3.2,2.67,5.92,4.96,8.16,2.29,2.24,5.01,3.95,8.16,5.12,3.2,1.17,6.59,1.76,10.16,1.76,4.43,0,8.16-.72,11.2-2.16,3.09-1.39,5.57-3.25,7.44-5.6,1.92-2.35,3.31-4.99,4.16-7.92.91-2.88,1.36-5.81,1.36-8.8V17.68h-15.6Z"/>
  <path class="st0" d="M10.22,81.46c-.68.48-1.45.72-2.3.72s-1.53-.19-2.16-.56c-.63-.39-1.12-.93-1.48-1.62-.35-.69-.52-1.51-.52-2.44s.18-1.74.54-2.42c.36-.68.85-1.21,1.48-1.58.64-.39,1.37-.58,2.18-.58.87,0,1.61.24,2.24.72.64.47,1.12,1.16,1.44,2.08l2.7-.84c-.29-.95-.75-1.75-1.36-2.42s-1.35-1.17-2.22-1.52c-.85-.36-1.79-.54-2.82-.54s-1.93.17-2.8.52c-.85.35-1.6.84-2.24,1.48-.64.63-1.14,1.37-1.5,2.24s-.54,1.82-.54,2.86.17,2,.52,2.88c.36.87.86,1.62,1.5,2.26.64.63,1.39,1.12,2.24,1.48.87.35,1.81.52,2.82.52s1.94-.18,2.82-.54,1.65-.89,2.3-1.58c.65-.69,1.13-1.53,1.42-2.52l-2.74-.64c-.33.87-.84,1.55-1.52,2.04Z"/>
  <path class="st0" d="M24.66,75.9c-.29-.8-.77-1.43-1.42-1.88s-1.42-.68-2.3-.68c-.97,0-1.83.25-2.58.74-.75.48-1.33,1.15-1.76,2s-.64,1.83-.64,2.94.21,2.07.64,2.94c.43.85,1.01,1.53,1.76,2.02.75.48,1.61.72,2.58.72.88,0,1.65-.23,2.3-.68s1.13-1.09,1.42-1.9v.94c0,.45.13.82.4,1.1.27.27.63.4,1.08.4h1.36v-11.08h-2.84v2.42ZM24.24,80.76c-.27.48-.62.85-1.06,1.1s-.92.38-1.44.38-.97-.13-1.42-.38c-.44-.25-.8-.62-1.08-1.1-.27-.48-.4-1.06-.4-1.74s.13-1.28.4-1.76c.28-.48.64-.84,1.08-1.08.45-.25.93-.38,1.42-.38.52,0,1,.13,1.44.38.44.24.79.6,1.06,1.08.28.48.42,1.07.42,1.76s-.14,1.26-.42,1.74Z"/>
  <path class="st0" d="M33.93,82.28c-.24,0-.45-.07-.62-.22s-.26-.37-.26-.66v-11.64h-2.82v11.82c0,.75.15,1.35.44,1.82.31.45.69.79,1.16,1,.48.2.97.3,1.46.3.6,0,1.13-.12,1.6-.36l-.52-2.14c-.12.05-.27.08-.44.08Z"/>
  <path class="st0" d="M42.98,81.74c-.4.39-.94.58-1.62.58-.52,0-.97-.13-1.36-.38-.39-.27-.69-.65-.9-1.14s-.32-1.09-.32-1.8.11-1.3.32-1.78c.21-.49.51-.87.9-1.12.39-.25.84-.38,1.36-.38.59,0,1.07.16,1.46.48.4.32.7.79.9,1.4l2.72-.86c-.21-.64-.49-1.17-.82-1.6-.33-.44-.71-.79-1.14-1.04-.43-.27-.91-.46-1.44-.58-.52-.12-1.07-.18-1.66-.18-1.08,0-2.03.23-2.86.7-.83.47-1.47,1.13-1.94,1.98-.45.84-.68,1.83-.68,2.98s.23,2.15.7,3.02c.47.85,1.11,1.51,1.94,1.98.83.47,1.77.7,2.84.7,1,0,1.85-.17,2.54-.52.69-.36,1.26-.83,1.7-1.42.45-.59.77-1.22.94-1.9l-2.74-.64c-.15.61-.43,1.12-.84,1.52Z"/>
  <path class="st0" d="M56.27,79.28c0,.57-.1,1.09-.3,1.54s-.49.81-.86,1.08c-.37.25-.81.38-1.32.38-.73,0-1.33-.24-1.78-.72-.45-.49-.68-1.19-.68-2.08v-6h-2.8v6.48c0,1,.17,1.85.52,2.56.35.71.84,1.25,1.48,1.62.65.37,1.42.56,2.3.56.68,0,1.3-.17,1.86-.5.57-.35,1.04-.88,1.4-1.6.07-.13.12-.27.18-.42v.88c0,.45.13.82.4,1.1.28.27.65.4,1.1.4h1.34v-11.08h-2.84s0,5.8,0,5.8Z"/>
  <path class="st0" d="M65.55,82.28c-.24,0-.45-.07-.62-.22-.17-.15-.26-.37-.26-.66v-11.64h-2.82v11.82c0,.75.15,1.35.44,1.82.31.45.69.79,1.16,1,.48.2.97.3,1.46.3.6,0,1.13-.12,1.6-.36l-.52-2.14c-.12.05-.27.08-.44.08Z"/>
  <path class="st0" d="M76.22,75.9c-.29-.8-.77-1.43-1.42-1.88s-1.42-.68-2.3-.68c-.97,0-1.83.25-2.58.74-.75.48-1.33,1.15-1.76,2s-.64,1.83-.64,2.94.21,2.07.64,2.94c.43.85,1.01,1.53,1.76,2.02.75.48,1.61.72,2.58.72.88,0,1.65-.23,2.3-.68s1.13-1.09,1.42-1.9v.94c0,.45.13.82.4,1.1.27.27.63.4,1.08.4h1.36v-11.08h-2.84s0,2.42,0,2.42ZM75.8,80.76c-.27.48-.62.85-1.06,1.1s-.92.38-1.44.38-.97-.13-1.42-.38c-.44-.25-.8-.62-1.08-1.1-.27-.48-.4-1.06-.4-1.74s.13-1.28.4-1.76c.28-.48.64-.84,1.08-1.08.45-.25.93-.38,1.42-.38.52,0,1,.13,1.44.38.44.24.79.6,1.06,1.08.28.48.42,1.07.42,1.76s-.14,1.26-.42,1.74Z"/>
  <path class="st0" d="M86.91,82.18c-.13.05-.28.08-.44.08-.25,0-.48-.09-.68-.26s-.3-.43-.3-.78v-5.44h2.44v-2.3h-3.62c.24-.05.45-.15.62-.3.17-.15.31-.32.4-.52.11-.2.16-.4.16-.6v-1.32h-2.8v1.78c0,.29-.09.53-.26.7-.16.17-.39.26-.68.26h-.84v2.3h1.72v5.34c0,1.15.3,2.03.9,2.66.61.61,1.44.92,2.48.92.45,0,.87-.07,1.24-.2.37-.13.73-.34,1.08-.62l-1-1.94c-.13.11-.27.19-.42.24Z"/>
  <path class="st0" d="M97.85,81.64c-.35.25-.73.45-1.14.6-.41.15-.84.22-1.28.22-.51,0-.98-.08-1.42-.24-.44-.17-.81-.41-1.12-.72-.29-.31-.48-.64-.56-1,.04,0,.12,0,.24.02h.44c.16,0,.3,0,.42.02.76.03,1.53,0,2.32-.1.79-.11,1.51-.29,2.16-.56.67-.28,1.2-.65,1.6-1.12s.6-1.05.6-1.74c0-.53-.13-1.03-.38-1.48-.24-.45-.59-.84-1.04-1.16-.44-.33-.95-.59-1.54-.76-.59-.19-1.21-.28-1.88-.28-.79,0-1.53.14-2.24.42-.71.27-1.33.65-1.88,1.16-.55.51-.97,1.11-1.28,1.82s-.46,1.49-.46,2.36.15,1.61.44,2.3c.31.68.73,1.27,1.26,1.76.55.49,1.18.87,1.9,1.14.73.27,1.53.4,2.38.4.69,0,1.36-.09,2-.26s1.24-.44,1.8-.8c.56-.37,1.05-.84,1.48-1.4l-1.94-1.46c-.23.31-.52.59-.88.86h0ZM92.61,77.08c.27-.45.63-.82,1.1-1.1.48-.28,1.03-.42,1.64-.42.39,0,.73.07,1.02.2.31.12.55.29.72.5.19.2.28.43.28.7,0,.32-.12.59-.36.8-.23.2-.53.36-.92.48-.37.11-.79.18-1.24.22-.44.04-.88.06-1.32.06-.27,0-.52,0-.76-.02s-.44-.03-.6-.04c.03-.48.17-.94.44-1.38Z"/>
  <path class="st0" d="M110.16,79.28c0,.57-.1,1.09-.3,1.54s-.49.81-.86,1.08c-.37.25-.81.38-1.32.38-.73,0-1.33-.24-1.78-.72-.45-.49-.68-1.19-.68-2.08v-6h-2.8v6.48c0,1,.17,1.85.52,2.56s.84,1.25,1.48,1.62c.65.37,1.42.56,2.3.56.68,0,1.3-.17,1.86-.5.57-.35,1.04-.88,1.4-1.6.07-.13.12-.27.18-.42v.88c0,.45.13.82.4,1.1.28.27.65.4,1.1.4h1.34v-11.08h-2.84v5.8Z"/>
  <path class="st0" d="M118.56,76.02v-2.54h-2.82v11.08h2.82v-5.18c0-.69.12-1.27.36-1.74s.57-.82.98-1.06c.43-.24.9-.36,1.42-.36.12,0,.23,0,.34.02.12,0,.24.02.36.06v-2.96c-.84,0-1.57.24-2.18.72-.6.48-1.03,1.13-1.28,1.96Z"/>
  <path class="st0" d="M136.63,75.9c-.29-.8-.77-1.43-1.42-1.88s-1.42-.68-2.3-.68c-.97,0-1.83.25-2.58.74-.75.48-1.33,1.15-1.76,2s-.64,1.83-.64,2.94.21,2.07.64,2.94c.43.85,1.01,1.53,1.76,2.02.75.48,1.61.72,2.58.72.88,0,1.65-.23,2.3-.68.65-.45,1.13-1.09,1.42-1.9v.94c0,.45.13.82.4,1.1.27.27.63.4,1.08.4h1.36v-14.8h-2.84v6.14ZM136.21,80.76c-.27.48-.62.85-1.06,1.1s-.92.38-1.44.38c-.49,0-.97-.13-1.42-.38-.44-.25-.8-.62-1.08-1.1-.27-.48-.4-1.06-.4-1.74s.13-1.28.4-1.76c.28-.48.64-.84,1.08-1.08.45-.25.93-.38,1.42-.38.52,0,1,.13,1.44.38.44.24.79.6,1.06,1.08.28.48.42,1.07.42,1.76s-.14,1.26-.42,1.74Z"/>
  <path class="st0" d="M149.92,81.64c-.35.25-.73.45-1.14.6s-.84.22-1.28.22c-.51,0-.98-.08-1.42-.24-.44-.17-.81-.41-1.12-.72-.29-.31-.48-.64-.56-1,.04,0,.12,0,.24.02h.44c.16,0,.3,0,.42.02.76.03,1.53,0,2.32-.1.79-.11,1.51-.29,2.16-.56.67-.28,1.2-.65,1.6-1.12.4-.47.6-1.05.6-1.74,0-.53-.13-1.03-.38-1.48-.24-.45-.59-.84-1.04-1.16-.44-.33-.95-.59-1.54-.76-.59-.19-1.21-.28-1.88-.28-.79,0-1.53.14-2.24.42-.71.27-1.33.65-1.88,1.16s-.97,1.11-1.28,1.82-.46,1.49-.46,2.36.15,1.61.44,2.3c.31.68.73,1.27,1.26,1.76.55.49,1.18.87,1.9,1.14.73.27,1.53.4,2.38.4.69,0,1.36-.09,2-.26s1.24-.44,1.8-.8c.56-.37,1.05-.84,1.48-1.4l-1.94-1.46c-.23.31-.52.59-.88.86h0ZM144.68,77.08c.27-.45.63-.82,1.1-1.1.48-.28,1.03-.42,1.64-.42.39,0,.73.07,1.02.2.31.12.55.29.72.5.19.2.28.43.28.7,0,.32-.12.59-.36.8-.23.2-.53.36-.92.48-.37.11-.79.18-1.24.22-.44.04-.88.06-1.32.06-.27,0-.52,0-.76-.02s-.44-.03-.6-.04c.03-.48.17-.94.44-1.38Z"/>
  <path class="st0" d="M166.15,78.8c-.47-.24-.97-.43-1.5-.56-.53-.15-1.04-.28-1.52-.4-.47-.13-.85-.29-1.16-.46-.29-.19-.44-.45-.44-.78s.13-.57.4-.76c.27-.2.65-.3,1.16-.3s.95.13,1.24.38c.31.24.52.59.64,1.06l2.56-.68c-.15-.6-.41-1.12-.8-1.56-.39-.45-.88-.8-1.48-1.04-.6-.24-1.29-.36-2.08-.36-.91,0-1.69.15-2.34.44s-1.16.69-1.52,1.2c-.35.51-.52,1.06-.52,1.66,0,.68.15,1.23.44,1.64.31.4.7.72,1.18.96.48.23.99.41,1.52.56.53.13,1.03.26,1.5.38.48.11.87.25,1.16.44.31.17.46.43.46.76s-.15.59-.44.8c-.28.21-.7.32-1.26.32-.48,0-.9-.13-1.26-.38-.36-.27-.6-.62-.72-1.06l-2.64.6c.17.57.47,1.09.9,1.56s.96.83,1.6,1.1c.64.25,1.36.38,2.16.38.89,0,1.67-.15,2.32-.44.65-.29,1.16-.69,1.52-1.18.36-.51.54-1.06.54-1.66,0-.68-.15-1.23-.46-1.64-.29-.41-.68-.74-1.16-.98h0Z"/>
  <path class="st0" d="M176.34,81.74c-.4.39-.94.58-1.62.58-.52,0-.97-.13-1.36-.38-.39-.27-.69-.65-.9-1.14-.21-.49-.32-1.09-.32-1.8s.11-1.3.32-1.78c.21-.49.51-.87.9-1.12s.84-.38,1.36-.38c.59,0,1.07.16,1.46.48.4.32.7.79.9,1.4l2.72-.86c-.21-.64-.49-1.17-.82-1.6-.33-.44-.71-.79-1.14-1.04-.43-.27-.91-.46-1.44-.58-.52-.12-1.07-.18-1.66-.18-1.08,0-2.03.23-2.86.7-.83.47-1.47,1.13-1.94,1.98-.45.84-.68,1.83-.68,2.98s.23,2.15.7,3.02c.47.85,1.11,1.51,1.94,1.98s1.77.7,2.84.7c1,0,1.85-.17,2.54-.52.69-.36,1.26-.83,1.7-1.42.45-.59.77-1.22.94-1.9l-2.74-.64c-.15.61-.43,1.12-.84,1.52h0Z"/>
  <path class="st0" d="M189.87,74.04c-.85-.47-1.81-.7-2.88-.7s-2.03.23-2.9.7c-.87.45-1.55,1.11-2.06,1.96-.51.84-.76,1.84-.76,3s.25,2.17.74,3.02c.51.85,1.18,1.51,2.02,1.98.85.47,1.81.7,2.88.7s2.05-.23,2.92-.7c.88-.47,1.57-1.13,2.08-1.98.52-.85.78-1.86.78-3.02s-.25-2.16-.76-3c-.51-.85-1.19-1.51-2.06-1.96h0ZM189.39,80.82c-.28.48-.64.84-1.08,1.08-.44.23-.91.34-1.4.34s-.95-.11-1.38-.34c-.41-.24-.75-.6-1-1.08-.25-.49-.38-1.1-.38-1.82s.13-1.32.4-1.8c.27-.48.61-.83,1.02-1.06.43-.24.89-.36,1.38-.36s.95.12,1.38.36c.44.23.79.58,1.06,1.06.28.48.42,1.08.42,1.8s-.14,1.33-.42,1.82Z"/>
  <path class="st0" d="M197.54,76.02v-2.54h-2.82v11.08h2.82v-5.18c0-.69.12-1.27.36-1.74s.57-.82.98-1.06c.43-.24.9-.36,1.42-.36.12,0,.23,0,.34.02.12,0,.24.02.36.06v-2.96c-.84,0-1.57.24-2.18.72-.6.48-1.03,1.13-1.28,1.96Z"/>
  <path class="st0" d="M210.55,81.64c-.35.25-.73.45-1.14.6s-.84.22-1.28.22c-.51,0-.98-.08-1.42-.24-.44-.17-.81-.41-1.12-.72-.29-.31-.48-.64-.56-1,.04,0,.12,0,.24.02h.44c.16,0,.3,0,.42.02.76.03,1.53,0,2.32-.1.79-.11,1.51-.29,2.16-.56.67-.28,1.2-.65,1.6-1.12.4-.47.6-1.05.6-1.74,0-.53-.13-1.03-.38-1.48-.24-.45-.59-.84-1.04-1.16-.44-.33-.95-.59-1.54-.76-.59-.19-1.21-.28-1.88-.28-.79,0-1.53.14-2.24.42-.71.27-1.33.65-1.88,1.16s-.97,1.11-1.28,1.82-.46,1.49-.46,2.36.15,1.61.44,2.3c.31.68.73,1.27,1.26,1.76.55.49,1.18.87,1.9,1.14.73.27,1.53.4,2.38.4.69,0,1.36-.09,2-.26s1.24-.44,1.8-.8c.56-.37,1.05-.84,1.48-1.4l-1.94-1.46c-.23.31-.52.59-.88.86h0ZM205.31,77.08c.27-.45.63-.82,1.1-1.1.48-.28,1.03-.42,1.64-.42.39,0,.73.07,1.02.2.31.12.55.29.72.5.19.2.28.43.28.7,0,.32-.12.59-.36.8-.23.2-.53.36-.92.48-.37.11-.79.18-1.24.22-.44.04-.88.06-1.32.06-.27,0-.52,0-.76-.02s-.44-.03-.6-.04c.03-.48.17-.94.44-1.38Z"/>
</svg>