<?xml version="1.0" encoding="UTF-8"?>
<svg id="Calque_1" xmlns="http://www.w3.org/2000/svg" version="1.1" viewBox="0 0 72 72">
  <!-- Generator: Adobe Illustrator 29.6.0, SVG Export Plug-In . SVG Version: 2.1.1 Build 207)  -->
  <defs>
    <style>
      .st0 {
        fill: none;
      }

      .st1 {
        fill: #d8cebc;
      }
    </style>
  </defs>
  <g>
    <polygon class="st0" points=".21 19.06 0 19.21 0 18.76 .21 19.06"/>
    <polygon class="st0" points="0 62.15 1.31 62.38 1.18 63.12 0 62.91 0 62.15"/>
    <polygon class="st0" points="1.33 7.37 0 7.68 0 6.91 1.16 6.64 1.33 7.37"/>
    <polygon class="st0" points="1.97 40.05 0 41.53 0 40.59 1.52 39.45 1.97 40.05"/>
    <rect class="st0" y="23.63" width="2.75" height=".75"/>
    <polygon class="st0" points="3.52 71.18 4.11 72 3.2 72 2.92 71.61 3.52 71.18"/>
    <polygon class="st0" points="4.02 66.71 4.48 67.3 2.23 69.05 1.77 68.46 4.02 66.71"/>
    <polygon class="st0" points="4.53 29.2 4.96 29.81 2.46 31.56 2.03 30.95 4.53 29.2"/>
    <polygon class="st0" points="5.12 17.53 4.87 20.78 4.12 20.72 4.37 17.47 5.12 17.53"/>
    <polygon class="st0" points="4.58 1.93 3.2 0 4.11 0 5.19 1.49 4.58 1.93"/>
    <polygon class="st0" points="1.57 50.89 5.32 51.64 5.17 52.37 1.42 51.62 1.57 50.89"/>
    <polygon class="st0" points="3.22 13.06 2.78 12.45 5.53 10.45 5.97 11.06 3.22 13.06"/>
    <polygon class="st0" points="7.82 34.7 5.57 38.45 4.93 38.06 7.18 34.31 7.82 34.7"/>
    <polygon class="st0" points="7.37 59.98 8.12 60.03 7.87 64.03 7.12 63.98 7.37 59.98"/>
    <polygon class="st0" points="7.53 56 6.97 55.5 9.22 53 9.78 53.5 7.53 56"/>
    <rect class="st0" x="8.37" y="43.61" width=".75" height="4.04" transform="translate(-16.32 6.51) rotate(-21.8)"/>
    <polygon class="st0" points="9.79 66.58 10.52 66.73 9.61 70.95 8.88 70.79 9.79 66.58"/>
    <polygon class="st0" points="10.6 7.1 7.1 5.6 7.4 4.91 10.9 6.41 10.6 7.1"/>
    <polygon class="st0" points="12.22 19.81 9.47 21.81 9.03 21.2 11.78 19.2 12.22 19.81"/>
    <polygon class="st0" points="13.01 16.54 9.76 13.79 10.24 13.22 13.49 15.97 13.01 16.54"/>
    <rect class="st0" x="12" y="39.63" width="3" height=".75"/>
    <polygon class="st0" points="12.55 10.62 12.44 9.88 15.69 9.38 15.8 10.12 12.55 10.62"/>
    <polygon class="st0" points="15.87 58.95 15.13 59.06 14.63 55.81 15.37 55.7 15.87 58.95"/>
    <rect class="st0" x="13.5" y="24.38" width="2.5" height=".75" transform="translate(-11.9 13.8) rotate(-36.87)"/>
    <polygon class="st0" points="16.25 .59 15.63 .17 15.75 0 16.65 0 16.25 .59"/>
    <polygon class="st0" points="14.96 34.45 17.46 36.2 17.03 36.81 14.53 35.06 14.96 34.45"/>
    <polygon class="st0" points="16.96 70.22 17.58 70.64 16.65 72 15.75 72 16.96 70.22"/>
    <polygon class="st0" points="15.05 47.19 17.8 45.44 18.2 46.07 15.45 47.82 15.05 47.19"/>
    <rect class="st0" x="18.37" y="4.75" width=".75" height="3"/>
    <polygon class="st0" points="20.42 52.64 20.58 53.37 17.08 54.12 16.92 53.39 20.42 52.64"/>
    <polygon class="st0" points="20.13 17.56 19.63 14.31 20.37 14.2 20.87 17.45 20.13 17.56"/>
    <polygon class="st0" points="20.65 58.9 19.92 58.72 20.63 55.91 21.36 56.1 20.65 58.9"/>
    <polygon class="st0" points="19.05 62.04 21.55 65.54 20.94 65.97 18.44 62.47 19.05 62.04"/>
    <polygon class="st0" points="22.62 30.07 19.57 29.94 19.6 29.19 22.65 29.32 22.62 30.07"/>
    <polygon class="st0" points="23.2 25.25 22.74 25.84 20.36 24.02 20.81 23.43 23.2 25.25"/>
    <polygon class="st0" points="21.08 10.12 20.92 9.39 24.42 8.64 24.58 9.37 21.08 10.12"/>
    <polygon class="st0" points="22.46 42.7 24.96 44.45 24.53 45.06 22.03 43.31 22.46 42.7"/>
    <polygon class="st0" points="24.29 33.14 25.02 33.32 24.33 36.11 23.61 35.93 24.29 33.14"/>
    <polygon class="st0" points="26.67 40.37 22.92 39.62 23.07 38.89 26.82 39.64 26.67 40.37"/>
    <rect class="st0" x="25.59" y="68.17" width="3" height=".75" transform="translate(-42.48 92.88) rotate(-87.71)"/>
    <polygon class="st0" points="27.68 16.21 26.03 13.64 26.66 13.24 28.31 15.8 27.68 16.21"/>
    <polygon class="st0" points="26.48 58.96 29.23 61.21 28.76 61.79 26.01 59.54 26.48 58.96"/>
    <rect class="st0" x="26.5" y="54.38" width="3" height=".75"/>
    <polygon class="st0" points="27.28 7.25 26.72 6.75 28.97 4.25 29.53 4.75 27.28 7.25"/>
    <polygon class="st0" points="29.53 28.2 29.96 28.81 27.46 30.56 27.03 29.95 29.53 28.2"/>
    <rect class="st0" x="27" y="20.13" width="3" height=".75"/>
    <rect class="st0" x="29.25" y="49.88" width="2.5" height=".75" transform="translate(-24.05 28.35) rotate(-36.87)"/>
    <rect class="st0" x="29.5" y="43.13" width="2.5" height=".75" transform="translate(-19.95 27.15) rotate(-36.87)"/>
    <polygon class="st0" points="32.05 66.07 30.05 64.82 30.45 64.19 32.45 65.44 32.05 66.07"/>
    <polygon class="st0" points="31.09 69.98 32.5 72 31.58 72 30.48 70.4 31.09 69.98"/>
    <polygon class="st0" points="32.5 0 32.52 .03 31.9 .46 31.58 0 32.5 0"/>
    <polygon class="st0" points="33.84 33.47 34.34 36.97 33.6 37.07 33.1 33.57 33.84 33.47"/>
    <polygon class="st0" points="34.13 23.41 34.86 23.6 34.15 26.4 33.42 26.22 34.13 23.41"/>
    <polygon class="st0" points="36.68 13.87 32.68 13.12 32.82 12.38 36.82 13.13 36.68 13.87"/>
    <polygon class="st0" points="36.51 7.54 33.26 4.79 33.74 4.22 36.99 6.97 36.51 7.54"/>
    <polygon class="st0" points="37.39 44.9 38.14 42.4 38.86 42.61 38.11 45.11 37.39 44.9"/>
    <polygon class="st0" points="38.76 52.29 36.01 50.04 36.48 49.46 39.23 51.71 38.76 52.29"/>
    <polygon class="st0" points="39.05 32.07 36.3 30.32 36.7 29.69 39.45 31.44 39.05 32.07"/>
    <polygon class="st0" points="37.7 58.44 39.7 59.69 39.3 60.32 37.3 59.07 37.7 58.44"/>
    <polygon class="st0" points="37.46 21.06 37.03 20.45 39.53 18.7 39.96 19.31 37.46 21.06"/>
    <rect class="st0" x="39.5" y="23.88" width="3" height=".75"/>
    <polygon class="st0" points="42.08 67.41 42.7 67.84 40.85 70.52 40.23 70.1 42.08 67.41"/>
    <polygon class="st0" points="41.6 5.02 40.98 4.6 42.83 1.91 43.45 2.34 41.6 5.02"/>
    <rect class="st0" x="42.5" y="37.38" width="2.5" height=".75" transform="translate(-13.9 33.8) rotate(-36.87)"/>
    <polygon class="st0" points="42.73 11.35 44.58 8.66 45.2 9.09 43.35 11.77 42.73 11.35"/>
    <polygon class="st0" points="47.89 51.36 44.64 50.36 44.86 49.64 48.11 50.64 47.89 51.36"/>
    <polygon class="st0" points="48.28 1.86 47.54 1.83 47.61 0 48.35 0 48.28 1.86"/>
    <polygon class="st0" points="47.65 70.83 48.4 70.86 48.35 72 47.61 72 47.65 70.83"/>
    <polygon class="st0" points="45.35 65.19 48.4 65.32 48.37 66.07 45.32 65.94 45.35 65.19"/>
    <polygon class="st0" points="45.96 45.56 45.53 44.95 48.03 43.2 48.46 43.81 45.96 45.56"/>
    <polygon class="st0" points="46.56 59.43 48.95 61.25 48.49 61.84 46.11 60.02 46.56 59.43"/>
    <polygon class="st0" points="48.34 19.77 46.68 17.21 47.31 16.8 48.97 19.36 48.34 19.77"/>
    <polygon class="st0" points="49.43 31.13 49.84 31.76 47.45 33.32 47.04 32.69 49.43 31.13"/>
    <polygon class="st0" points="47.81 25.18 50.2 27 49.74 27.59 47.36 25.77 47.81 25.18"/>
    <polygon class="st0" points="50.82 13.95 50.18 13.56 52.18 10.31 52.82 10.7 50.82 13.95"/>
    <polygon class="st0" points="52.38 37.88 52.95 38.38 50.6 41.04 50.03 40.54 52.38 37.88"/>
    <polygon class="st0" points="53.3 6.82 50.05 4.82 50.44 4.18 53.69 6.18 53.3 6.82"/>
    <polygon class="st0" points="54.24 58.93 53.12 55.87 53.82 55.61 54.95 58.67 54.24 58.93"/>
    <polygon class="st0" points="54.87 24.53 54.12 24.48 54.35 21.46 55.09 21.52 54.87 24.53"/>
    <polygon class="st0" points="56.8 66.82 54.05 65.07 54.45 64.44 57.2 66.19 56.8 66.82"/>
    <polygon class="st0" points="55.78 2.23 55.16 1.81 56.37 0 57.27 0 55.78 2.23"/>
    <polygon class="st0" points="56.69 48.21 54.79 45.39 55.42 44.97 57.31 47.79 56.69 48.21"/>
    <polygon class="st0" points="57.16 70.81 57.78 71.23 57.27 72 56.37 72 57.16 70.81"/>
    <rect class="st0" x="56" y="31.43" width=".75" height="3.13" transform="translate(.41 66.69) rotate(-61.39)"/>
    <polygon class="st0" points="56.42 14.47 58.31 17.29 57.69 17.71 55.79 14.89 56.42 14.47"/>
    <polygon class="st0" points="57.82 28.14 60.54 28.68 60.4 29.41 57.67 28.87 57.82 28.14"/>
    <rect class="st0" x="60" y="52.38" width="2.5" height=".75" transform="translate(-19.4 47.3) rotate(-36.87)"/>
    <rect class="st0" x="59.97" y="44.15" width="3" height=".75"/>
    <polygon class="st0" points="62.87 69.64 63.32 72 62.56 72 62.13 69.78 62.87 69.64"/>
    <polygon class="st0" points="62.76 1.06 62.56 0 63.32 0 63.49 .92 62.76 1.06"/>
    <polygon class="st0" points="63.27 60.71 63.73 61.3 61.48 63.05 61.02 62.46 63.27 60.71"/>
    <rect class="st0" x="59.25" y="7.75" width="5.48" height=".76" transform="translate(2.11 26.12) rotate(-24.19)"/>
    <polygon class="st0" points="62.17 21.42 64.67 22.67 64.33 23.34 61.83 22.09 62.17 21.42"/>
    <polygon class="st0" points="61.95 38.94 64.7 40.69 64.3 41.32 61.55 39.57 61.95 38.94"/>
    <polygon class="st0" points="66.7 32.59 64.85 35.27 64.23 34.85 66.08 32.16 66.7 32.59"/>
    <polygon class="st0" points="64.28 14.2 66.78 12.45 67.21 13.06 64.71 14.81 64.28 14.2"/>
    <polygon class="st0" points="68.05 57.55 66.16 54.73 66.78 54.31 68.68 57.14 68.05 57.55"/>
    <polygon class="st0" points="68.31 .98 67.61 .72 67.88 0 68.68 0 68.31 .98"/>
    <polygon class="st0" points="68.72 69.76 69.43 70.02 68.68 72 67.88 72 68.72 69.76"/>
    <polygon class="st0" points="68.73 49.21 71.48 51.46 71.01 52.04 68.26 49.79 68.73 49.21"/>
    <polygon class="st0" points="71.7 31.19 71.3 31.82 68.55 30.07 68.95 29.44 71.7 31.19"/>
    <rect class="st0" x="68.75" y="44.63" width="3" height=".75"/>
    <polygon class="st0" points="72 6.91 72 7.68 70.08 8.12 69.91 7.39 72 6.91"/>
    <polygon class="st0" points="71.78 18.45 72 18.76 72 19.21 69.71 20.81 69.28 20.2 71.78 18.45"/>
    <rect class="st0" x="71.75" y="23.63" width=".25" height=".75"/>
    <polygon class="st0" points="71.52 40.95 72 40.59 72 41.53 71.97 41.55 71.52 40.95"/>
    <polygon class="st0" points="69.06 61.63 72 62.15 72 62.91 68.93 62.37 69.06 61.63"/>
  </g>
  <g>
    <polygon class="st1" points="69.43 70.02 68.68 72 67.88 72 68.72 69.76 69.43 70.02"/>
    <polygon class="st1" points="63.32 72 62.56 72 62.13 69.78 62.87 69.64 63.32 72"/>
    <polygon class="st1" points="48.4 70.86 48.35 72 47.61 72 47.65 70.83 48.4 70.86"/>
    <polygon class="st1" points="32.5 72 31.58 72 30.48 70.4 31.09 69.98 32.5 72"/>
    <polygon class="st1" points="17.58 70.64 16.65 72 15.75 72 16.96 70.22 17.58 70.64"/>
    <polygon class="st1" points="4.11 72 3.2 72 2.92 71.61 3.52 71.18 4.11 72"/>
    <polygon class="st1" points="57.78 71.23 57.27 72 56.37 72 57.16 70.81 57.78 71.23"/>
  </g>
  <g>
    <rect class="st1" x="71.75" y="23.63" width=".25" height=".75"/>
    <polygon class="st1" points="72 40.59 72 41.53 71.97 41.55 71.52 40.95 72 40.59"/>
  </g>
  <g>
    <polygon class="st1" points="5.97 11.06 3.22 13.06 2.78 12.45 5.53 10.45 5.97 11.06"/>
    <polygon class="st1" points="4.48 67.3 2.23 69.05 1.77 68.46 4.02 66.71 4.48 67.3"/>
    <polygon class="st1" points="72 6.91 72 7.68 70.08 8.12 69.91 7.39 72 6.91"/>
    <polygon class="st1" points="72 18.76 72 19.21 69.71 20.81 69.28 20.2 71.78 18.45 72 18.76"/>
    <rect class="st1" x="71.75" y="23.63" width=".25" height=".75"/>
    <polygon class="st1" points="71.7 31.19 71.3 31.82 68.55 30.07 68.95 29.44 71.7 31.19"/>
    <polygon class="st1" points="72 40.59 72 41.53 71.97 41.55 71.52 40.95 72 40.59"/>
    <polygon class="st1" points="71.48 51.46 71.01 52.04 68.26 49.79 68.73 49.21 71.48 51.46"/>
    <polygon class="st1" points="72 62.15 72 62.91 68.93 62.37 69.06 61.63 72 62.15"/>
    <polygon class="st1" points="63.73 61.3 61.48 63.05 61.02 62.46 63.27 60.71 63.73 61.3"/>
    <rect class="st1" x="68.75" y="44.63" width="3" height=".75"/>
    <polygon class="st1" points="58.31 17.29 57.69 17.71 55.79 14.89 56.42 14.47 58.31 17.29"/>
    <polygon class="st1" points="28.31 15.8 27.68 16.21 26.03 13.64 26.66 13.24 28.31 15.8"/>
    <polygon class="st1" points="45.2 9.09 43.35 11.77 42.73 11.35 44.58 8.66 45.2 9.09"/>
    <polygon class="st1" points="69.43 70.02 68.68 72 67.88 72 68.72 69.76 69.43 70.02"/>
    <polygon class="st1" points="63.32 72 62.56 72 62.13 69.78 62.87 69.64 63.32 72"/>
    <polygon class="st1" points="57.31 47.79 56.69 48.21 54.79 45.39 55.42 44.97 57.31 47.79"/>
    <polygon class="st1" points="48.97 19.36 48.34 19.77 46.68 17.21 47.31 16.8 48.97 19.36"/>
    <polygon class="st1" points="48.4 70.86 48.35 72 47.61 72 47.65 70.83 48.4 70.86"/>
    <polygon class="st1" points="42.7 67.84 40.85 70.52 40.23 70.1 42.08 67.41 42.7 67.84"/>
    <polygon class="st1" points="32.5 72 31.58 72 30.48 70.4 31.09 69.98 32.5 72"/>
    <polygon class="st1" points="52.95 38.38 50.6 41.04 50.03 40.54 52.38 37.88 52.95 38.38"/>
    <polygon class="st1" points="17.58 70.64 16.65 72 15.75 72 16.96 70.22 17.58 70.64"/>
    <polygon class="st1" points="10.52 66.73 9.61 70.95 8.88 70.79 9.79 66.58 10.52 66.73"/>
    <polygon class="st1" points="4.11 72 3.2 72 2.92 71.61 3.52 71.18 4.11 72"/>
    <rect class="st1" x="25.59" y="68.17" width="3" height=".75" transform="translate(-42.48 92.88) rotate(-87.71)"/>
    <polygon class="st1" points="10.9 6.41 10.6 7.1 7.1 5.6 7.4 4.91 10.9 6.41"/>
    <polygon class="st1" points="5.12 17.53 4.87 20.78 4.12 20.72 4.37 17.47 5.12 17.53"/>
    <rect class="st1" x="8.37" y="43.61" width=".75" height="4.04" transform="translate(-16.32 6.51) rotate(-21.8)"/>
    <polygon class="st1" points="7.82 34.7 5.57 38.45 4.93 38.06 7.18 34.31 7.82 34.7"/>
    <polygon class="st1" points="29.53 4.75 27.28 7.25 26.72 6.75 28.97 4.25 29.53 4.75"/>
    <polygon class="st1" points="36.99 6.97 36.51 7.54 33.26 4.79 33.74 4.22 36.99 6.97"/>
    <polygon class="st1" points="53.69 6.18 53.3 6.82 50.05 4.82 50.44 4.18 53.69 6.18"/>
    <polygon class="st1" points="52.82 10.7 50.82 13.95 50.18 13.56 52.18 10.31 52.82 10.7"/>
    <rect class="st1" x="59.25" y="7.75" width="5.48" height=".76" transform="translate(2.12 26.16) rotate(-24.23)"/>
    <polygon class="st1" points="67.21 13.06 64.71 14.81 64.28 14.2 66.78 12.45 67.21 13.06"/>
    <rect class="st1" x="18.37" y="4.75" width=".75" height="3"/>
    <polygon class="st1" points="15.8 10.12 12.55 10.62 12.44 9.88 15.69 9.38 15.8 10.12"/>
    <polygon class="st1" points="20.87 17.45 20.13 17.56 19.63 14.31 20.37 14.2 20.87 17.45"/>
    <polygon class="st1" points="24.58 9.37 21.08 10.12 20.92 9.39 24.42 8.64 24.58 9.37"/>
    <polygon class="st1" points="12.22 19.81 9.47 21.81 9.03 21.2 11.78 19.2 12.22 19.81"/>
    <polygon class="st1" points="8.12 60.03 7.87 64.03 7.12 63.98 7.37 59.98 8.12 60.03"/>
    <polygon class="st1" points="9.78 53.5 7.53 56 6.97 55.5 9.22 53 9.78 53.5"/>
    <polygon class="st1" points="21.55 65.54 20.94 65.97 18.44 62.47 19.05 62.04 21.55 65.54"/>
    <polygon class="st1" points="29.96 28.81 27.46 30.56 27.03 29.95 29.53 28.2 29.96 28.81"/>
    <rect class="st1" x="56" y="31.43" width=".75" height="3.13" transform="translate(.41 66.69) rotate(-61.39)"/>
    <polygon class="st1" points="26.82 39.64 26.67 40.37 22.92 39.62 23.07 38.89 26.82 39.64"/>
    <rect class="st1" x="29.25" y="49.88" width="2.5" height=".75" transform="translate(-24.05 28.35) rotate(-36.87)"/>
    <polygon class="st1" points="29.23 61.21 28.76 61.79 26.01 59.54 26.48 58.96 29.23 61.21"/>
    <polygon class="st1" points="32.45 65.44 32.05 66.07 30.05 64.82 30.45 64.19 32.45 65.44"/>
    <rect class="st1" x="26.5" y="54.38" width="3" height=".75"/>
    <polygon class="st1" points="39.96 19.31 37.46 21.06 37.03 20.45 39.53 18.7 39.96 19.31"/>
    <rect class="st1" x="39.5" y="23.88" width="3" height=".75"/>
    <polygon class="st1" points="39.45 31.44 39.05 32.07 36.3 30.32 36.7 29.69 39.45 31.44"/>
    <polygon class="st1" points="38.86 42.61 38.11 45.11 37.39 44.9 38.14 42.4 38.86 42.61"/>
    <polygon class="st1" points="39.23 51.71 38.76 52.29 36.01 50.04 36.48 49.46 39.23 51.71"/>
    <polygon class="st1" points="39.7 59.69 39.3 60.32 37.3 59.07 37.7 58.44 39.7 59.69"/>
    <rect class="st1" x="59.97" y="44.15" width="3" height=".75"/>
    <polygon class="st1" points="24.96 44.45 24.53 45.06 22.03 43.31 22.46 42.7 24.96 44.45"/>
    <rect class="st1" x="27" y="20.13" width="3" height=".75"/>
    <polygon class="st1" points="17.46 36.2 17.03 36.81 14.53 35.06 14.96 34.45 17.46 36.2"/>
    <rect class="st1" x="12" y="39.63" width="3" height=".75"/>
    <polygon class="st1" points="18.2 46.07 15.45 47.82 15.05 47.19 17.8 45.44 18.2 46.07"/>
    <polygon class="st1" points="49.84 31.76 47.45 33.32 47.04 32.69 49.43 31.13 49.84 31.76"/>
    <polygon class="st1" points="50.2 27 49.74 27.59 47.36 25.77 47.81 25.18 50.2 27"/>
    <polygon class="st1" points="55.09 21.52 54.87 24.53 54.12 24.48 54.35 21.46 55.09 21.52"/>
    <polygon class="st1" points="48.4 65.32 48.37 66.07 45.32 65.94 45.35 65.19 48.4 65.32"/>
    <polygon class="st1" points="48.95 61.25 48.49 61.84 46.11 60.02 46.56 59.43 48.95 61.25"/>
    <polygon class="st1" points="54.95 58.67 54.24 58.93 53.12 55.87 53.82 55.61 54.95 58.67"/>
    <polygon class="st1" points="48.46 43.81 45.96 45.56 45.53 44.95 48.03 43.2 48.46 43.81"/>
    <polygon class="st1" points="48.11 50.64 47.89 51.36 44.64 50.36 44.86 49.64 48.11 50.64"/>
    <polygon class="st1" points="57.2 66.19 56.8 66.82 54.05 65.07 54.45 64.44 57.2 66.19"/>
    <polygon class="st1" points="64.7 40.69 64.3 41.32 61.55 39.57 61.95 38.94 64.7 40.69"/>
    <rect class="st1" x="60" y="52.38" width="2.5" height=".75" transform="translate(-19.4 47.3) rotate(-36.87)"/>
    <polygon class="st1" points="22.65 29.32 22.62 30.07 19.57 29.94 19.6 29.19 22.65 29.32"/>
    <polygon class="st1" points="23.2 25.25 22.74 25.84 20.36 24.02 20.81 23.43 23.2 25.25"/>
    <polygon class="st1" points="60.54 28.68 60.4 29.41 57.67 28.87 57.82 28.14 60.54 28.68"/>
    <polygon class="st1" points="15.87 58.95 15.13 59.06 14.63 55.81 15.37 55.7 15.87 58.95"/>
    <polygon class="st1" points="20.58 53.37 17.08 54.12 16.92 53.39 20.42 52.64 20.58 53.37"/>
    <polygon class="st1" points="36.82 13.13 36.68 13.87 32.68 13.12 32.82 12.38 36.82 13.13"/>
    <polygon class="st1" points="34.34 36.97 33.6 37.07 33.1 33.57 33.84 33.47 34.34 36.97"/>
    <polygon class="st1" points="64.67 22.67 64.33 23.34 61.83 22.09 62.17 21.42 64.67 22.67"/>
    <polygon class="st1" points="13.49 15.97 13.01 16.54 9.76 13.79 10.24 13.22 13.49 15.97"/>
    <polygon class="st1" points="4.96 29.81 2.46 31.56 2.03 30.95 4.53 29.2 4.96 29.81"/>
    <rect class="st1" x="13.5" y="24.38" width="2.5" height=".75" transform="translate(-11.9 13.8) rotate(-36.87)"/>
    <polygon class="st1" points="43.45 2.34 41.6 5.02 40.98 4.6 42.83 1.91 43.45 2.34"/>
    <polygon class="st1" points="66.7 32.59 64.85 35.27 64.23 34.85 66.08 32.16 66.7 32.59"/>
    <polygon class="st1" points="34.86 23.6 34.15 26.4 33.42 26.22 34.13 23.41 34.86 23.6"/>
    <polygon class="st1" points="21.36 56.1 20.65 58.9 19.92 58.72 20.63 55.91 21.36 56.1"/>
    <rect class="st1" x="29.5" y="43.13" width="2.5" height=".75" transform="translate(-19.95 27.15) rotate(-36.87)"/>
    <rect class="st1" y="23.63" width="2.75" height=".75"/>
    <polygon class="st1" points="1.97 40.05 0 41.53 0 40.59 1.52 39.45 1.97 40.05"/>
    <polygon class="st1" points="68.68 0 68.31 .98 67.61 .72 67.88 0 68.68 0"/>
    <polygon class="st1" points="63.49 .92 62.76 1.06 62.56 0 63.32 0 63.49 .92"/>
    <polygon class="st1" points="48.35 0 48.28 1.86 47.54 1.83 47.61 0 48.35 0"/>
    <polygon class="st1" points="32.52 .03 31.9 .46 31.58 0 32.5 0 32.52 .03"/>
    <polygon class="st1" points="16.65 0 16.25 .59 15.63 .17 15.75 0 16.65 0"/>
    <polygon class="st1" points="5.19 1.49 4.58 1.93 3.2 0 4.11 0 5.19 1.49"/>
    <polygon class="st1" points="5.32 51.64 5.17 52.37 1.42 51.62 1.57 50.89 5.32 51.64"/>
    <polygon class="st1" points="68.68 57.14 68.05 57.55 66.16 54.73 66.78 54.31 68.68 57.14"/>
    <polygon class="st1" points="25.02 33.32 24.33 36.11 23.61 35.93 24.29 33.14 25.02 33.32"/>
    <rect class="st1" x="42.5" y="37.38" width="2.5" height=".75" transform="translate(-13.9 33.8) rotate(-36.87)"/>
    <polygon class="st1" points="57.27 0 55.78 2.23 55.16 1.81 56.37 0 57.27 0"/>
    <polygon class="st1" points="57.78 71.23 57.27 72 56.37 72 57.16 70.81 57.78 71.23"/>
  </g>
  <g>
    <polygon class="st1" points="1.33 7.37 0 7.68 0 6.91 1.16 6.64 1.33 7.37"/>
    <polygon class="st1" points=".21 19.06 0 19.21 0 18.76 .21 19.06"/>
    <rect class="st1" y="23.63" width="2.75" height=".75"/>
    <polygon class="st1" points="1.97 40.05 0 41.53 0 40.59 1.52 39.45 1.97 40.05"/>
    <polygon class="st1" points="1.31 62.38 1.18 63.12 0 62.91 0 62.15 1.31 62.38"/>
  </g>
  <g>
    <polygon class="st1" points="68.68 0 68.31 .98 67.61 .72 67.88 0 68.68 0"/>
    <polygon class="st1" points="63.49 .92 62.76 1.06 62.56 0 63.32 0 63.49 .92"/>
    <polygon class="st1" points="48.35 0 48.28 1.86 47.54 1.83 47.61 0 48.35 0"/>
    <polygon class="st1" points="32.52 .03 31.9 .46 31.58 0 32.5 0 32.52 .03"/>
    <polygon class="st1" points="16.65 0 16.25 .59 15.63 .17 15.75 0 16.65 0"/>
    <polygon class="st1" points="5.19 1.49 4.58 1.93 3.2 0 4.11 0 5.19 1.49"/>
    <polygon class="st1" points="57.27 0 55.78 2.23 55.16 1.81 56.37 0 57.27 0"/>
  </g>
</svg>